<?xml version="1.0" encoding="UTF-8" standalone="no"?>
<svg xmlns="http://www.w3.org/2000/svg" viewBox="0 0 64 64">
  <circle cx="32" cy="32" r="30" fill="#F7931A"/>
  <path d="M43.5,29.8c0.6-4.3-2.6-6.5-7-8.1l1.4-5.7l-3.5-0.9l-1.4,5.6c-0.9-0.2-1.8-0.4-2.7-0.7l1.4-5.7l-3.5-0.9l-1.4,5.7
    c-0.8-0.2-1.5-0.3-2.2-0.5l0,0l-4.8-1.2l-0.9,3.7c0,0,2.6,0.6,2.5,0.6c1.4,0.4,1.7,1.3,1.6,2l-1.6,6.6c0.1,0,0.2,0.1,0.4,0.1
    c-0.1,0-0.2-0.1-0.4-0.1l-2.3,9.2c-0.2,0.5-0.6,1.1-1.6,0.9c0,0.1-2.5-0.6-2.5-0.6l-1.7,4l4.5,1.1c0.8,0.2,1.7,0.4,2.5,0.6
    l-1.5,5.8l3.5,0.9l1.4-5.7c0.9,0.3,1.9,0.5,2.8,0.7l-1.4,5.7l3.5,0.9l1.5-5.8c5.7,1.1,10.1,0.6,11.8-4.5c1.4-4.1-0.1-6.4-2.9-7.9
    C41.5,34.4,43.1,33.1,43.5,29.8z M36.7,39.5c-1,4.1-7.8,1.9-10,1.3l1.8-7.1C31,34.2,37.8,35.2,36.7,39.5z M37.8,29.7
    c-0.9,3.7-6.6,1.8-8.4,1.4l1.6-6.5C33.2,25,38.8,25.8,37.8,29.7z" fill="#FFFFFF"/>
</svg>